<?xml version="1.0" encoding="utf-8"?>
<COLLADA xmlns="http://www.collada.org/2005/11/COLLADASchema" version="1.4.1" xmlns:xsi="http://www.w3.org/2001/XMLSchema-instance">
  <asset>
    <contributor>
      <author>Blender User</author>
      <authoring_tool>Blender 4.5.5 LTS commit date:2025-11-17, commit time:16:03, hash:836beaaf597a</authoring_tool>
    </contributor>
    <created>2025-12-22T11:14:04</created>
    <modified>2025-12-22T11:14:04</modified>
    <unit name="meter" meter="1"/>
    <up_axis>Z_UP</up_axis>
  </asset>
  <library_cameras>
    <camera id="Camera-camera" name="Camera">
      <optics>
        <technique_common>
          <perspective>
            <xfov sid="xfov">39.59775</xfov>
            <aspect_ratio>1.777778</aspect_ratio>
            <znear sid="znear">0.1</znear>
            <zfar sid="zfar">100</zfar>
          </perspective>
        </technique_common>
      </optics>
      <extra>
        <technique profile="blender">
          <shiftx sid="shiftx" type="float">0</shiftx>
          <shifty sid="shifty" type="float">0</shifty>
          <dof_distance sid="dof_distance" type="float">10</dof_distance>
        </technique>
      </extra>
    </camera>
  </library_cameras>
  <library_lights>
    <light id="Light-light" name="Light">
      <technique_common>
        <point>
          <color sid="color">1000 1000 1000</color>
          <constant_attenuation>1</constant_attenuation>
          <linear_attenuation>0</linear_attenuation>
          <quadratic_attenuation>0</quadratic_attenuation>
        </point>
      </technique_common>
      <extra>
        <technique profile="blender">
          <type sid="type" type="int">0</type>
          <flag sid="flag" type="int">0</flag>
          <mode sid="mode" type="int">2097153</mode>
          <red sid="red" type="float">1</red>
          <green sid="green" type="float">1</green>
          <blue sid="blue" type="float">1</blue>
          <energy sid="blender_energy" type="float">1000</energy>
          <spotsize sid="spotsize" type="float">75</spotsize>
          <spotblend sid="spotblend" type="float">0.15</spotblend>
          <clipsta sid="clipsta" type="float">0.04999995</clipsta>
          <clipend sid="clipend" type="float">40</clipend>
          <radius sid="radius" type="float">0.1</radius>
          <area_shape sid="area_shape" type="int">1</area_shape>
          <area_size sid="area_size" type="float">0.1</area_size>
          <area_sizey sid="area_sizey" type="float">0.1</area_sizey>
          <area_sizez sid="area_sizez" type="float">1</area_sizez>
        </technique>
      </extra>
    </light>
  </library_lights>
  <library_images/>
  <library_geometries>
    <geometry id="rod-mesh" name="rod">
      <mesh>
        <source id="rod-mesh-positions">
          <float_array id="rod-mesh-positions-array" count="390">0.04999995 0 0 0 0 0 0.0497592 0.004900813 0 0.04999995 0 0.5 0.0497592 0.004900813 0.5 0 0 0.5 0.04903924 0.009754478 0 0.04903924 0.009754478 0.5 0.04784697 0.0145142 0 0.04784697 0.0145142 0.5 0.04619395 0.01913416 0 0.04619395 0.01913416 0.5 0.04409605 0.02356982 0 0.04409605 0.02356982 0.5 0.04157346 0.0277785 0 0.04157346 0.0277785 0.5 0.03865051 0.03171962 0 0.03865051 0.03171962 0.5 0.03535532 0.03535532 0 0.03535532 0.03535532 0.5 0.03171962 0.03865051 0 0.03171962 0.03865051 0.5 0.0277785 0.04157346 0 0.0277785 0.04157346 0.5 0.02356982 0.04409605 0 0.02356982 0.04409605 0.5 0.01913416 0.04619395 0 0.01913416 0.04619395 0.5 0.0145142 0.04784697 0 0.0145142 0.04784697 0.5 0.009754478 0.04903924 0 0.009754478 0.04903924 0.5 0.004900813 0.0497592 0 0.004900813 0.0497592 0.5 0 0.04999995 0 0 0.04999995 0.5 -0.004900813 0.0497592 0 -0.004900813 0.0497592 0.5 -0.009754478 0.04903924 0 -0.009754478 0.04903924 0.5 -0.0145142 0.04784697 0 -0.0145142 0.04784697 0.5 -0.01913416 0.04619395 0 -0.01913416 0.04619395 0.5 -0.02356982 0.04409605 0 -0.02356982 0.04409605 0.5 -0.0277785 0.04157346 0 -0.0277785 0.04157346 0.5 -0.03171962 0.03865051 0 -0.03171962 0.03865051 0.5 -0.03535532 0.03535532 0 -0.03535532 0.03535532 0.5 -0.03865051 0.03171962 0 -0.03865051 0.03171962 0.5 -0.04157346 0.0277785 0 -0.04157346 0.0277785 0.5 -0.04409605 0.02356982 0 -0.04409605 0.02356982 0.5 -0.04619395 0.01913416 0 -0.04619395 0.01913416 0.5 -0.04784697 0.0145142 0 -0.04784697 0.0145142 0.5 -0.04903924 0.009754478 0 -0.04903924 0.009754478 0.5 -0.0497592 0.004900813 0 -0.0497592 0.004900813 0.5 -0.04999995 0 0 -0.04999995 0 0.5 -0.0497592 -0.004900813 0 -0.0497592 -0.004900813 0.5 -0.04903924 -0.009754478 0 -0.04903924 -0.009754478 0.5 -0.04784697 -0.0145142 0 -0.04784697 -0.0145142 0.5 -0.04619395 -0.01913416 0 -0.04619395 -0.01913416 0.5 -0.04409605 -0.02356982 0 -0.04409605 -0.02356982 0.5 -0.04157346 -0.0277785 0 -0.04157346 -0.0277785 0.5 -0.03865051 -0.03171962 0 -0.03865051 -0.03171962 0.5 -0.03535532 -0.03535532 0 -0.03535532 -0.03535532 0.5 -0.03171962 -0.03865051 0 -0.03171962 -0.03865051 0.5 -0.0277785 -0.04157346 0 -0.0277785 -0.04157346 0.5 -0.02356982 -0.04409605 0 -0.02356982 -0.04409605 0.5 -0.01913416 -0.04619395 0 -0.01913416 -0.04619395 0.5 -0.0145142 -0.04784697 0 -0.0145142 -0.04784697 0.5 -0.009754478 -0.04903924 0 -0.009754478 -0.04903924 0.5 -0.004900813 -0.0497592 0 -0.004900813 -0.0497592 0.5 0 -0.04999995 0 0 -0.04999995 0.5 0.004900813 -0.0497592 0 0.004900813 -0.0497592 0.5 0.009754478 -0.04903924 0 0.009754478 -0.04903924 0.5 0.0145142 -0.04784697 0 0.0145142 -0.04784697 0.5 0.01913416 -0.04619395 0 0.01913416 -0.04619395 0.5 0.02356982 -0.04409605 0 0.02356982 -0.04409605 0.5 0.0277785 -0.04157346 0 0.0277785 -0.04157346 0.5 0.03171962 -0.03865051 0 0.03171962 -0.03865051 0.5 0.03535532 -0.03535532 0 0.03535532 -0.03535532 0.5 0.03865051 -0.03171962 0 0.03865051 -0.03171962 0.5 0.04157346 -0.0277785 0 0.04157346 -0.0277785 0.5 0.04409605 -0.02356982 0 0.04409605 -0.02356982 0.5 0.04619395 -0.01913416 0 0.04619395 -0.01913416 0.5 0.04784697 -0.0145142 0 0.04784697 -0.0145142 0.5 0.04903924 -0.009754478 0 0.04903924 -0.009754478 0.5 0.0497592 -0.004900813 0 0.0497592 -0.004900813 0.5</float_array>
          <technique_common>
            <accessor source="#rod-mesh-positions-array" count="130" stride="3">
              <param name="X" type="float"/>
              <param name="Y" type="float"/>
              <param name="Z" type="float"/>
            </accessor>
          </technique_common>
        </source>
        <source id="rod-mesh-normals">
          <float_array id="rod-mesh-normals-array" count="768">0 0 -1 0.9987954 0.04906803 0 0.9987954 0.04906803 0 0 0 1 0 0 -1 0.9891765 0.1467304 0 0.9891765 0.1467304 0 0 0 1 0 0 -1 0.9700313 0.2429798 0 0.9700313 0.2429798 0 0 0 1 0 0 -1 0.941544 0.3368901 0 0.941544 0.3368901 0 0 0 1 0 0 -1 0.9039894 0.4275548 0 0.9039894 0.4275548 0 0 0 1 0 0 -1 0.8577285 0.514103 0 0.8577285 0.514103 0 0 0 1 0 0 -1 0.8032075 0.5956992 0 0.8032075 0.5956992 0 0 0 1 0 0 -1 0.7409512 0.6715589 0 0.7409512 0.6715589 0 0 0 1 0 0 -1 0.6715589 0.7409512 0 0.6715589 0.7409512 0 0 0 1 0 0 -1 0.5956989 0.8032078 0 0.5956989 0.8032078 0 0 0 1 0 0 -1 0.514103 0.8577285 0 0.514103 0.8577285 0 0 0 1 0 0 -1 0.4275548 0.9039894 0 0.4275548 0.9039894 0 0 0 1 0 0 -1 0.3368902 0.941544 0 0.3368902 0.941544 0 0 0 1 0 0 -1 0.2429798 0.9700313 0 0.2429798 0.9700313 0 0 0 1 0 0 -1 0.1467304 0.9891765 0 0.1467304 0.9891765 0 0 0 1 0 0 -1 0.04906803 0.9987954 0 0.04906803 0.9987954 0 0 0 1 0 0 -1 -0.04906803 0.9987954 0 -0.04906803 0.9987954 0 0 0 1 0 0 -1 -0.1467304 0.9891765 0 -0.1467304 0.9891765 0 0 0 1 0 0 -1 -0.2429798 0.9700313 0 -0.2429798 0.9700313 0 0 0 1 0 0 -1 -0.3368902 0.941544 0 -0.3368902 0.941544 0 0 0 1 0 0 -1 -0.4275548 0.9039894 0 -0.4275548 0.9039894 0 0 0 1 0 0 -1 -0.514103 0.8577285 0 -0.514103 0.8577285 0 0 0 1 0 0 -1 -0.5956989 0.8032078 0 -0.5956989 0.8032078 0 0 0 1 0 0 -1 -0.6715589 0.7409512 0 -0.6715589 0.7409512 0 0 0 1 0 0 -1 -0.7409512 0.6715589 0 -0.7409512 0.6715589 0 0 0 1 0 0 -1 -0.8032075 0.5956992 0 -0.8032075 0.5956992 0 0 0 1 0 0 -1 -0.8577285 0.514103 0 -0.8577285 0.514103 0 0 0 1 0 0 -1 -0.9039894 0.4275548 0 -0.9039894 0.4275548 0 0 0 1 0 0 -1 -0.941544 0.3368901 0 -0.941544 0.3368901 0 0 0 1 0 0 -1 -0.9700313 0.2429798 0 -0.9700313 0.2429798 0 0 0 1 0 0 -1 -0.9891765 0.1467304 0 -0.9891765 0.1467304 0 0 0 1 0 0 -1 -0.9987954 0.04906803 0 -0.9987954 0.04906803 0 0 0 1 0 0 -1 -0.9987954 -0.04906803 0 -0.9987954 -0.04906803 0 0 0 1 0 0 -1 -0.9891766 -0.1467304 0 -0.9891766 -0.1467304 0 0 0 1 0 0 -1 -0.9700313 -0.2429798 0 -0.9700313 -0.2429798 0 0 0 1 0 0 -1 -0.9415439 -0.3368902 0 -0.9415439 -0.3368902 0 0 0 1 0 0 -1 -0.9039894 -0.4275548 0 -0.9039894 -0.4275548 0 0 0 1 0 0 -1 -0.8577285 -0.514103 0 -0.8577285 -0.514103 0 0 0 1 0 0 -1 -0.8032081 -0.5956985 0 -0.8032081 -0.5956985 0 0 0 1 0 0 -1 -0.7409512 -0.6715589 0 -0.7409512 -0.6715589 0 0 0 1 0 0 -1 -0.6715589 -0.7409512 0 -0.6715589 -0.7409512 0 0 0 1 0 0 -1 -0.5956989 -0.8032078 0 -0.5956989 -0.8032078 0 0 0 1 0 0 -1 -0.514103 -0.8577285 0 -0.514103 -0.8577285 0 0 0 1 0 0 -1 -0.4275548 -0.9039894 0 -0.4275548 -0.9039894 0 0 0 1 0 0 -1 -0.3368902 -0.941544 0 -0.3368902 -0.941544 0 0 0 1 0 0 -1 -0.2429798 -0.9700313 0 -0.2429798 -0.9700313 0 0 0 1 0 0 -1 -0.1467304 -0.9891765 0 -0.1467304 -0.9891765 0 0 0 1 0 0 -1 -0.04906803 -0.9987954 0 -0.04906803 -0.9987954 0 0 0 1 0 0 -1 0.04906803 -0.9987954 0 0.04906803 -0.9987954 0 0 0 1 0 0 -1 0.1467304 -0.9891765 0 0.1467304 -0.9891765 0 0 0 1 0 0 -1 0.2429798 -0.9700313 0 0.2429798 -0.9700313 0 0 0 1 0 0 -1 0.3368902 -0.941544 0 0.3368902 -0.941544 0 0 0 1 0 0 -1 0.4275548 -0.9039894 0 0.4275548 -0.9039894 0 0 0 1 0 0 -1 0.514103 -0.8577285 0 0.514103 -0.8577285 0 0 0 1 0 0 -1 0.5956989 -0.8032078 0 0.5956989 -0.8032078 0 0 0 1 0 0 -1 0.6715589 -0.7409512 0 0.6715589 -0.7409512 0 0 0 1 0 0 -1 0.7409512 -0.6715589 0 0.7409512 -0.6715589 0 0 0 1 0 0 -1 0.8032081 -0.5956985 0 0.8032081 -0.5956985 0 0 0 1 0 0 -1 0.8577285 -0.514103 0 0.8577285 -0.514103 0 0 0 1 0 0 -1 0.9039894 -0.4275548 0 0.9039894 -0.4275548 0 0 0 1 0 0 -1 0.9415439 -0.3368902 0 0.9415439 -0.3368902 0 0 0 1 0 0 -1 0.9700313 -0.2429798 0 0.9700313 -0.2429798 0 0 0 1 0 0 -1 0.9891766 -0.1467304 0 0.9891766 -0.1467304 0 0 0 1 0 0 -1 0.9987954 -0.04906803 0 0.9987954 -0.04906803 0 0 0 1</float_array>
          <technique_common>
            <accessor source="#rod-mesh-normals-array" count="256" stride="3">
              <param name="X" type="float"/>
              <param name="Y" type="float"/>
              <param name="Z" type="float"/>
            </accessor>
          </technique_common>
        </source>
        <vertices id="rod-mesh-vertices">
          <input semantic="POSITION" source="#rod-mesh-positions"/>
        </vertices>
        <triangles count="256">
          <input semantic="VERTEX" source="#rod-mesh-vertices" offset="0"/>
          <input semantic="NORMAL" source="#rod-mesh-normals" offset="1"/>
          <p>0 0 1 0 2 0 0 1 2 1 3 1 3 2 2 2 4 2 3 3 4 3 5 3 2 4 1 4 6 4 2 5 6 5 4 5 4 6 6 6 7 6 4 7 7 7 5 7 6 8 1 8 8 8 6 9 8 9 7 9 7 10 8 10 9 10 7 11 9 11 5 11 8 12 1 12 10 12 8 13 10 13 9 13 9 14 10 14 11 14 9 15 11 15 5 15 10 16 1 16 12 16 10 17 12 17 11 17 11 18 12 18 13 18 11 19 13 19 5 19 12 20 1 20 14 20 12 21 14 21 13 21 13 22 14 22 15 22 13 23 15 23 5 23 14 24 1 24 16 24 14 25 16 25 15 25 15 26 16 26 17 26 15 27 17 27 5 27 16 28 1 28 18 28 16 29 18 29 17 29 17 30 18 30 19 30 17 31 19 31 5 31 18 32 1 32 20 32 18 33 20 33 19 33 19 34 20 34 21 34 19 35 21 35 5 35 20 36 1 36 22 36 20 37 22 37 21 37 21 38 22 38 23 38 21 39 23 39 5 39 22 40 1 40 24 40 22 41 24 41 23 41 23 42 24 42 25 42 23 43 25 43 5 43 24 44 1 44 26 44 24 45 26 45 25 45 25 46 26 46 27 46 25 47 27 47 5 47 26 48 1 48 28 48 26 49 28 49 27 49 27 50 28 50 29 50 27 51 29 51 5 51 28 52 1 52 30 52 28 53 30 53 29 53 29 54 30 54 31 54 29 55 31 55 5 55 30 56 1 56 32 56 30 57 32 57 31 57 31 58 32 58 33 58 31 59 33 59 5 59 32 60 1 60 34 60 32 61 34 61 33 61 33 62 34 62 35 62 33 63 35 63 5 63 34 64 1 64 36 64 34 65 36 65 35 65 35 66 36 66 37 66 35 67 37 67 5 67 36 68 1 68 38 68 36 69 38 69 37 69 37 70 38 70 39 70 37 71 39 71 5 71 38 72 1 72 40 72 38 73 40 73 39 73 39 74 40 74 41 74 39 75 41 75 5 75 40 76 1 76 42 76 40 77 42 77 41 77 41 78 42 78 43 78 41 79 43 79 5 79 42 80 1 80 44 80 42 81 44 81 43 81 43 82 44 82 45 82 43 83 45 83 5 83 44 84 1 84 46 84 44 85 46 85 45 85 45 86 46 86 47 86 45 87 47 87 5 87 46 88 1 88 48 88 46 89 48 89 47 89 47 90 48 90 49 90 47 91 49 91 5 91 48 92 1 92 50 92 48 93 50 93 49 93 49 94 50 94 51 94 49 95 51 95 5 95 50 96 1 96 52 96 50 97 52 97 51 97 51 98 52 98 53 98 51 99 53 99 5 99 52 100 1 100 54 100 52 101 54 101 53 101 53 102 54 102 55 102 53 103 55 103 5 103 54 104 1 104 56 104 54 105 56 105 55 105 55 106 56 106 57 106 55 107 57 107 5 107 56 108 1 108 58 108 56 109 58 109 57 109 57 110 58 110 59 110 57 111 59 111 5 111 58 112 1 112 60 112 58 113 60 113 59 113 59 114 60 114 61 114 59 115 61 115 5 115 60 116 1 116 62 116 60 117 62 117 61 117 61 118 62 118 63 118 61 119 63 119 5 119 62 120 1 120 64 120 62 121 64 121 63 121 63 122 64 122 65 122 63 123 65 123 5 123 64 124 1 124 66 124 64 125 66 125 65 125 65 126 66 126 67 126 65 127 67 127 5 127 66 128 1 128 68 128 66 129 68 129 67 129 67 130 68 130 69 130 67 131 69 131 5 131 68 132 1 132 70 132 68 133 70 133 69 133 69 134 70 134 71 134 69 135 71 135 5 135 70 136 1 136 72 136 70 137 72 137 71 137 71 138 72 138 73 138 71 139 73 139 5 139 72 140 1 140 74 140 72 141 74 141 73 141 73 142 74 142 75 142 73 143 75 143 5 143 74 144 1 144 76 144 74 145 76 145 75 145 75 146 76 146 77 146 75 147 77 147 5 147 76 148 1 148 78 148 76 149 78 149 77 149 77 150 78 150 79 150 77 151 79 151 5 151 78 152 1 152 80 152 78 153 80 153 79 153 79 154 80 154 81 154 79 155 81 155 5 155 80 156 1 156 82 156 80 157 82 157 81 157 81 158 82 158 83 158 81 159 83 159 5 159 82 160 1 160 84 160 82 161 84 161 83 161 83 162 84 162 85 162 83 163 85 163 5 163 84 164 1 164 86 164 84 165 86 165 85 165 85 166 86 166 87 166 85 167 87 167 5 167 86 168 1 168 88 168 86 169 88 169 87 169 87 170 88 170 89 170 87 171 89 171 5 171 88 172 1 172 90 172 88 173 90 173 89 173 89 174 90 174 91 174 89 175 91 175 5 175 90 176 1 176 92 176 90 177 92 177 91 177 91 178 92 178 93 178 91 179 93 179 5 179 92 180 1 180 94 180 92 181 94 181 93 181 93 182 94 182 95 182 93 183 95 183 5 183 94 184 1 184 96 184 94 185 96 185 95 185 95 186 96 186 97 186 95 187 97 187 5 187 96 188 1 188 98 188 96 189 98 189 97 189 97 190 98 190 99 190 97 191 99 191 5 191 98 192 1 192 100 192 98 193 100 193 99 193 99 194 100 194 101 194 99 195 101 195 5 195 100 196 1 196 102 196 100 197 102 197 101 197 101 198 102 198 103 198 101 199 103 199 5 199 102 200 1 200 104 200 102 201 104 201 103 201 103 202 104 202 105 202 103 203 105 203 5 203 104 204 1 204 106 204 104 205 106 205 105 205 105 206 106 206 107 206 105 207 107 207 5 207 106 208 1 208 108 208 106 209 108 209 107 209 107 210 108 210 109 210 107 211 109 211 5 211 108 212 1 212 110 212 108 213 110 213 109 213 109 214 110 214 111 214 109 215 111 215 5 215 110 216 1 216 112 216 110 217 112 217 111 217 111 218 112 218 113 218 111 219 113 219 5 219 112 220 1 220 114 220 112 221 114 221 113 221 113 222 114 222 115 222 113 223 115 223 5 223 114 224 1 224 116 224 114 225 116 225 115 225 115 226 116 226 117 226 115 227 117 227 5 227 116 228 1 228 118 228 116 229 118 229 117 229 117 230 118 230 119 230 117 231 119 231 5 231 118 232 1 232 120 232 118 233 120 233 119 233 119 234 120 234 121 234 119 235 121 235 5 235 120 236 1 236 122 236 120 237 122 237 121 237 121 238 122 238 123 238 121 239 123 239 5 239 122 240 1 240 124 240 122 241 124 241 123 241 123 242 124 242 125 242 123 243 125 243 5 243 124 244 1 244 126 244 124 245 126 245 125 245 125 246 126 246 127 246 125 247 127 247 5 247 126 248 1 248 128 248 126 249 128 249 127 249 127 250 128 250 129 250 127 251 129 251 5 251 128 252 1 252 0 252 128 253 0 253 129 253 129 254 0 254 3 254 129 255 3 255 5 255</p>
        </triangles>
      </mesh>
    </geometry>
  </library_geometries>
  <library_visual_scenes>
    <visual_scene id="Scene" name="Scene">
      <node id="rod" name="rod" type="NODE">
        <matrix sid="transform">1 0 0 5.73122e-11 0 1 0 3.79693e-10 0 0 1 5.96046e-8 0 0 0 1</matrix>
        <instance_geometry url="#rod-mesh" name="rod"/>
      </node>
      <node id="Camera" name="Camera" type="NODE">
        <matrix sid="transform">0.6859207 -0.3240135 0.6515582 7.358891 0.7276763 0.3054208 -0.6141704 -6.925791 0 0.8953956 0.4452714 4.958309 0 0 0 1</matrix>
        <instance_camera url="#Camera-camera"/>
      </node>
      <node id="Light" name="Light" type="NODE">
        <matrix sid="transform">-0.2908646 -0.7711008 0.5663932 4.076245 0.9551712 -0.1998834 0.2183912 1.005454 -0.05518906 0.6045247 0.7946723 5.903862 0 0 0 1</matrix>
        <instance_light url="#Light-light"/>
      </node>
    </visual_scene>
  </library_visual_scenes>
  <scene>
    <instance_visual_scene url="#Scene"/>
  </scene>
</COLLADA>